<?xml version="1.0" encoding="UTF-8"?>
<svg xmlns="http://www.w3.org/2000/svg" xmlns:xlink="http://www.w3.org/1999/xlink" version="1.1" id="Capa_1" x="0px" y="0px" viewBox="0 0 512 512" style="enable-background:new 0 0 512 512;" xml:space="preserve" width="512" height="512">
<g>
	<g>
		<path style="fill:#F9F7F8;" d="M383.881,318.979H118.119C57.026,318.979,7.5,269.453,7.5,208.36v0&#10;&#9;&#9;&#9;C7.5,147.266,57.026,97.74,118.119,97.74h265.761c61.093,0,110.619,49.526,110.619,110.619v0&#10;&#9;&#9;&#9;C494.5,269.453,444.974,318.979,383.881,318.979z"/>
		<path style="fill:#00DCFD;" d="M383.881,132.74H118.119c-41.697,0-75.619,33.923-75.619,75.619&#10;&#9;&#9;&#9;c0,41.697,33.923,75.62,75.619,75.62h265.762c41.697,0,75.619-33.923,75.619-75.619C459.5,166.663,425.577,132.74,383.881,132.74z&#10;&#9;&#9;&#9;"/>
		<path style="fill:#E5E1E5;" d="M393.881,97.74h-30c61.093,0,110.619,49.526,110.619,110.619v0&#10;&#9;&#9;&#9;c0,61.093-49.526,110.619-110.619,110.619h30c61.093,0,110.619-49.526,110.619-110.619v0&#10;&#9;&#9;&#9;C504.5,147.266,454.974,97.74,393.881,97.74z"/>
		<path style="fill:#00C2FC;" d="M393.881,132.74h-30c41.697,0,75.619,33.923,75.619,75.62c0,41.697-33.923,75.619-75.619,75.619h30&#10;&#9;&#9;&#9;c41.697,0,75.619-33.923,75.619-75.619C469.5,166.663,435.577,132.74,393.881,132.74z"/>
		<path style="fill:#AC9DA9;" d="M379.634,337.824l-34.081,6.65c-5.088,0.993-9.066,4.971-10.059,10.059l-10.315,52.863&#10;&#9;&#9;&#9;c-1.624,8.323-13.105,9.383-16.225,1.497l-46.456-117.415c-2.734-6.911,3.54-14.103,10.452-11.369l110.686,37.289&#10;&#9;&#9;&#9;C391.522,320.518,387.957,336.2,379.634,337.824z"/>
		<g>
			<path style="fill:#806E7B;" d="M399.913,317.934l-132.28-52.338c-6.911-2.735-13.751,4.105-11.016,11.016l5.882,14.865&#10;&#9;&#9;&#9;&#9;l117.136,46.346l18.782-3.665C406.739,332.535,407.799,321.054,399.913,317.934z"/>
		</g>
	</g>
	<g>
		<path style="fill:none;stroke:#000000;stroke-width:15;stroke-linecap:round;stroke-linejoin:round;stroke-miterlimit:10;" d="&#10;&#9;&#9;&#9;M398.416,334.159l-52.863,10.315c-5.088,0.993-9.066,4.971-10.059,10.059l-10.315,52.863c-1.624,8.323-13.105,9.383-16.225,1.497&#10;&#9;&#9;&#9;l-52.338-132.28c-2.735-6.911,4.105-13.751,11.016-11.016l132.28,52.338C407.799,321.054,406.739,332.535,398.416,334.159z"/>
		<path style="fill:none;stroke:#000000;stroke-width:15;stroke-linecap:round;stroke-linejoin:round;stroke-miterlimit:10;" d="&#10;&#9;&#9;&#9;M151.527,318.979h-33.407C57.026,318.979,7.5,269.453,7.5,208.36v0C7.5,147.266,57.026,97.74,118.119,97.74h204.744"/>
		
			<line style="fill:none;stroke:#000000;stroke-width:15;stroke-linecap:round;stroke-linejoin:round;stroke-miterlimit:10;" x1="271.604" y1="318.979" x2="184.213" y2="318.979"/>
		<path style="fill:none;stroke:#000000;stroke-width:15;stroke-linecap:round;stroke-linejoin:round;stroke-miterlimit:10;" d="&#10;&#9;&#9;&#9;M355.696,97.74h38.185c61.093,0,110.619,49.526,110.619,110.619v0c0,57.264-43.512,104.366-99.278,110.045"/>
		<path style="fill:none;stroke:#000000;stroke-width:15;stroke-linecap:round;stroke-linejoin:round;stroke-miterlimit:10;" d="&#10;&#9;&#9;&#9;M317.331,283.979h76.55c41.697,0,75.619-33.923,75.619-75.619c0-41.697-33.923-75.62-75.619-75.62H169.706"/>
		<path style="fill:none;stroke:#000000;stroke-width:15;stroke-linecap:round;stroke-linejoin:round;stroke-miterlimit:10;" d="&#10;&#9;&#9;&#9;M137.019,132.74h-18.9c-41.697,0-75.619,33.923-75.619,75.619c0,41.697,33.923,75.62,75.619,75.62h139.306"/>
		<g>
			
				<line style="fill:none;stroke:#000000;stroke-width:15;stroke-linecap:round;stroke-linejoin:round;stroke-miterlimit:10;" x1="326.503" y1="172.667" x2="326.503" y2="244.052"/>
		</g>
		
			<circle style="fill:none;stroke:#000000;stroke-width:15;stroke-linecap:round;stroke-linejoin:round;stroke-miterlimit:10;" cx="230.811" cy="208.36" r="35.692"/>
		<g>
			
				<line style="fill:none;stroke:#000000;stroke-width:15;stroke-linecap:round;stroke-linejoin:round;stroke-miterlimit:10;" x1="116.074" y1="172.742" x2="116.074" y2="242.892"/>
			<path style="fill:none;stroke:#000000;stroke-width:15;stroke-linecap:round;stroke-linejoin:round;stroke-miterlimit:10;" d="&#10;&#9;&#9;&#9;&#9;M165.119,208.36c0,19.669-10.916,35.232-28.236,35.535c-5.765,0.101-20.664,0.157-20.664,0.157s-0.093-25.856-0.093-35.771&#10;&#9;&#9;&#9;&#9;c0-8.143-0.052-35.614-0.052-35.614s13.404,0,20.217,0C155.288,172.667,165.119,188.691,165.119,208.36z"/>
		</g>
		<g>
			
				<line style="fill:none;stroke:#000000;stroke-width:15;stroke-linecap:round;stroke-linejoin:round;stroke-miterlimit:10;" x1="356.503" y1="172.667" x2="395.926" y2="172.667"/>
			
				<line style="fill:none;stroke:#000000;stroke-width:15;stroke-linecap:round;stroke-linejoin:round;stroke-miterlimit:10;" x1="376.135" y1="174.947" x2="376.135" y2="244.052"/>
		</g>
	</g>
</g>















</svg>
