<svg xmlns="http://www.w3.org/2000/svg" version="1.1" xmlns:xlink="http://www.w3.org/1999/xlink" xmlns:svgjs="http://svgjs.com/svgjs" width="512" height="512" x="0" y="0" viewBox="0 0 512 512" style="enable-background:new 0 0 512 512" xml:space="preserve" class=""><g transform="matrix(0.96,0,0,0.96,10.239999847412008,10.239999389648432)"><g id="_30.Do_it" data-name="30.Do it"><path d="m220.8222 213.7892q-17.2931 0-29.0742 12.0239-11.7828 12.0251-11.7818 30.5679 0 20.6619 14.834 32.6848a40.6659 40.6659 0 0 0 26.4454 9.399 38.6176 38.6176 0 0 0 28.7344-12.1933q11.8668-12.1932 11.8673-30.06 0-17.7819-11.952-30.1022a38.9829 38.9829 0 0 0 -29.0731-12.3201z" fill="#169b45" data-original="#000000" class=""></path><path d="m460.8569 128.963h-409.7138a40.1432 40.1432 0 0 0 -40.1431 40.143v173.788a40.1432 40.1432 0 0 0 40.1431 40.143h409.7138a40.1432 40.1432 0 0 0 40.1431-40.143v-173.788a40.1432 40.1432 0 0 0 -40.1431-40.143zm-16.0352 73.31a11.6852 11.6852 0 0 1 23.37 0v67.6558a11.6852 11.6852 0 1 1 -23.37 0zm-309.9417 81.924a54.903 54.903 0 0 1 -13.1986 20.0258 46.6041 46.6041 0 0 1 -18.2314 11.0078q-9.814 3.0483-34.0091 3.0483h-20.4678a8.0443 8.0443 0 0 1 -8.0442-8.0442v-108.4694a8.0443 8.0443 0 0 1 8.0442-8.0442h20.0445q27.1572 0 40.3548 6.7317t21.7429 21.8886q8.5453 15.1583 8.5453 35.3944a71.2362 71.2362 0 0 1 -4.7806 26.4612zm131.9079 18.3322q-18.7684 18.8836-45.5427 18.8827-28.0464 0-46.6021-19.3907t-18.5558-46.0635a64.6092 64.6092 0 0 1 8.6418-32.8542 65.2038 65.2038 0 0 1 56.3467-32.5154q26.4351 0 45.458 19.1367 19.0211 19.1376 19.0225 46.6562.0004 27.2666-18.768 46.1482zm80.2331 3.98a11.77 11.77 0 0 1 -23.54 0v-101.0182a11.77 11.77 0 0 1 23.54 0zm71.5508-89.4174h-6.2828a4.7246 4.7246 0 0 0 -4.7246 4.7246v84.7775a11.6853 11.6853 0 0 1 -11.6852 11.6852h-.6774a11.6853 11.6853 0 0 1 -11.6853-11.6852v-84.7777a4.7246 4.7246 0 0 0 -4.7246-4.7246h-5.69a11.6853 11.6853 0 0 1 0-23.37h45.4708a11.6853 11.6853 0 1 1 0 23.37zm48.2228 99.2821a14.459 14.459 0 1 1 -.1339-20.58 14.3642 14.3642 0 0 1 4.41 10.3834 13.93 13.93 0 0 1 -4.2757 10.1964z" fill="#169b45" data-original="#000000" class=""></path><path d="m72.5129 216.5835a8.0443 8.0443 0 0 0 -8.0442 8.0442v62.4906a8.0444 8.0444 0 0 0 8.0442 8.0442h2.9636q16.2578 0 23.5822-3.73 7.3224-3.7291 11.9816-12.5453 4.6551-8.8156 4.6571-21.7006 0-19.834-11.0925-30.77-9.9927-9.8316-32.092-9.8331z" fill="#169b45" data-original="#000000" class=""></path></g></g></svg>