<?xml version="1.0" encoding="UTF-8"?>
<svg xmlns="http://www.w3.org/2000/svg" id="Icons" viewBox="0 0 60 60" width="512" height="512"><path d="M54.91,1.115a3.9,3.9,0,0,0-5.389,0L33.638,17H6a6.006,6.006,0,0,0-6,6V46a6.006,6.006,0,0,0,6,6H8v5.051A2.951,2.951,0,0,0,12.584,59.5L23.833,52H40a6.006,6.006,0,0,0,6-6V23.368L58.885,10.481a3.814,3.814,0,0,0,0-5.39ZM29.786,23.68,43.272,10.193l2.56,2.56L32.347,26.241Zm-1.8,2.586a4.212,4.212,0,0,1,.472-1.087l6.362,6.364a4.217,4.217,0,0,1-1.081.477l-7.2,1.964a.437.437,0,0,1-.424-.113.394.394,0,0,1-.1-.4Zm8.338,3.952-2.562-2.563L47.246,14.167l2.563,2.563ZM44.686,8.779l2.559-2.56,6.537,6.538-2.559,2.559ZM44,46a4,4,0,0,1-4,4H23.53a1,1,0,0,0-.555.168l-11.5,7.669A.951.951,0,0,1,10,57.052V51a1,1,0,0,0-1-1H6a4,4,0,0,1-4-4V23a4,4,0,0,1,4-4H31.638l-3.99,3.99a6.121,6.121,0,0,0-1.592,2.747l-1.965,7.2A2.417,2.417,0,0,0,26.416,36a2.507,2.507,0,0,0,.643-.084l7.208-1.968a6.333,6.333,0,0,0,2.746-1.592L44,25.368ZM57.471,9.067,55.2,11.342,48.659,4.805l2.276-2.276a1.836,1.836,0,0,1,2.561,0l3.975,3.976A1.83,1.83,0,0,1,57.471,9.067Z"/><path d="M8,27H22a1,1,0,0,0,0-2H8a1,1,0,0,0,0,2Z"/><path d="M8,35H20a1,1,0,0,0,0-2H8a1,1,0,0,0,0,2Z"/><path d="M30,41H8a1,1,0,0,0,0,2H30a1,1,0,0,0,0-2Z"/></svg>
