<svg id="Layer" height="512" viewBox="0 0 24 24" width="512" xmlns="http://www.w3.org/2000/svg"><path id="comment" d="m3.857 21.75c-.144 0-.286 0-.423-.007a1.228 1.228 0 0 1 -.749-2.162 4.124 4.124 0 0 0 1.455-2.155 8.3 8.3 0 0 1 -1.89-5.426c0-5.151 4.01-8.75 9.75-8.75s9.75 3.6 9.75 8.751-4.01 8.752-9.75 8.752a11.843 11.843 0 0 1 -3.394-.48 7.225 7.225 0 0 1 -4.749 1.477zm8.143-17c-4.857 0-8.25 2.982-8.25 7.25a6.787 6.787 0 0 0 1.75 4.7.749.749 0 0 1 .19.625 5.391 5.391 0 0 1 -1.507 2.914 5.326 5.326 0 0 0 3.68-1.329.748.748 0 0 1 .792-.2 10.208 10.208 0 0 0 3.345.543c4.857 0 8.25-2.982 8.25-7.252s-3.393-7.251-8.25-7.251z" fill="rgb(0,0,0)"/></svg>