<svg xmlns="http://www.w3.org/2000/svg" version="1.1" xmlns:xlink="http://www.w3.org/1999/xlink" xmlns:svgjs="http://svgjs.com/svgjs" width="512" height="512" x="0" y="0" viewBox="0 0 512 512" style="enable-background:new 0 0 512 512" xml:space="preserve" class=""><rect width="512" height="512" rx="20" ry="20" fill="#e8e1d1" shape="rounded" transform="matrix(1,0,0,1,0,0)"></rect><g transform="matrix(0.7,0,0,0.7,76.79999084472661,76.80006222724916)"><path d="m492.133 27.508-27.365-15.799c-9.195-5.309-19.907-6.719-30.163-3.971s-18.828 9.325-24.136 18.521l-8.311 14.395s-.001.001-.001.001 0 .001-.001.001l-45.139 78.183h-310.655c-25.564-.001-46.362 20.802-46.362 46.371v323.009c0 7.098 4.243 13.421 10.81 16.109 2.148.879 4.39 1.306 6.611 1.306 4.566 0 9.035-1.807 12.381-5.21l47.599-48.4c7.571-7.701 18.105-12.118 28.901-12.118h307.098c25.57 0 46.372-20.802 46.372-46.372v-228.324c0-.695-.022-1.381-.052-2.062l38.651-66.945 8.312-14.396c10.958-18.982 4.431-43.34-14.55-54.299zm-47.85 366.025c0 17.029-13.854 30.883-30.883 30.883h-307.098c-14.923 0-29.483 6.105-39.946 16.748l-47.599 48.4c-.596.605-1.296.749-2.081.428-.787-.322-1.187-.919-1.187-1.774v-323.008c0-17.029 13.85-30.883 30.873-30.883h301.714l-65.016 112.612c-.138.239-.26.485-.371.734-1.306 1.791-1.839 4.125-1.26 6.443l16.673 66.729c.509 2.037 1.823 3.78 3.641 4.83 1.188.686 2.526 1.038 3.873 1.038.714 0 1.431-.099 2.13-.299l66.126-18.925c2.297-.658 4.052-2.287 4.949-4.313.161-.221.313-.449.45-.688l65.011-112.602v203.647zm-143.958-127.683 53.936 31.14-43.075 12.328zm69.406 22.186-69.385-40.06 67.905-117.614c.022-.039.046-.077.067-.116l43.383-75.141 69.385 40.06zm123.538-213.974-4.439 7.689-69.385-40.06 4.439-7.689c3.24-5.612 8.471-9.626 14.731-11.304 6.259-1.677 12.797-.817 18.409 2.424l27.365 15.799c11.584 6.689 15.568 21.556 8.88 33.141zm-412.435 196.327h138.57c4.277 0 7.744-3.467 7.744-7.744s-3.467-7.744-7.744-7.744h-138.57c-4.277 0-7.744 3.467-7.744 7.744s3.467 7.744 7.744 7.744zm178.114 52.275h-178.114c-4.277 0-7.744 3.467-7.744 7.744s3.467 7.744 7.744 7.744h178.114c4.277 0 7.744-3.467 7.744-7.744.001-4.276-3.467-7.744-7.744-7.744z" fill="#000000" data-original="#000000" class=""></path></g></svg>