<svg height="512" viewBox="0 0 32 32" width="512" xmlns="http://www.w3.org/2000/svg"><g id="Layer_40" data-name="Layer 40"><circle cx="16" cy="16" fill="#63ba6b" r="13"/><path d="m25.1924 6.8076a13 13 0 0 1 -18.3848 18.3848z" fill="#4aae50"/><path d="m14 21h-.0264a1.0041 1.0041 0 0 1 -.7548-.375l-4-5a1 1 0 0 1 1.5625-1.25l3.2587 4.0742 7.2129-8.1133a1 1 0 1 1 1.4942 1.3282l-8 9a.9988.9988 0 0 1 -.7471.3359z" fill="#f2f2f2"/><path d="m16 30a14 14 0 1 1 14-14 14.0158 14.0158 0 0 1 -14 14zm0-26a12 12 0 1 0 12 12 12.0131 12.0131 0 0 0 -12-12z"/></g></svg>